<svg width="757" height="953" viewBox="0 0 757 953" fill="none" xmlns="http://www.w3.org/2000/svg">
<rect width="757" height="953" rx="12" fill="url(#paint0_linear_19_531)"/>
<mask id="mask0_19_531" style="mask-type:alpha" maskUnits="userSpaceOnUse" x="0" y="0" width="757" height="953">
<rect width="757" height="953" rx="12" fill="#651FAD"/>
</mask>
<g mask="url(#mask0_19_531)">
<path d="M348.5 185.965C158.58 194.542 36.244 250.299 -1.18399 277.105L-1.18402 455.096C24.1244 418.64 80.0882 375.751 268.298 427.218C456.507 478.686 672.52 360.025 757 294.261V0.467407H671.45C642.934 58.7257 538.421 177.387 348.5 185.965Z" fill="#5B1C9C"/>
<path d="M102.772 91.2586C103.238 90.3207 102.766 89.1272 101.721 88.6079C100.677 88.0886 100.247 86.8106 100.765 85.7671C101.284 84.7236 100.939 83.4877 99.9997 83.021C99.0608 82.5543 97.8669 83.025 97.3482 84.0685C96.8295 85.112 95.551 85.5407 94.5064 85.0214C93.4618 84.5022 92.2252 84.8464 91.759 85.7843C91.2929 86.7222 91.765 87.9157 92.8096 88.4349C93.8542 88.9542 94.2843 90.2322 93.7656 91.2757C93.2469 92.3192 93.5924 93.5552 94.5313 94.0219C95.4702 94.4886 96.6641 94.0178 97.1828 92.9743C97.7015 91.9309 98.98 91.5021 100.025 92.0214C101.069 92.5407 102.306 92.1965 102.772 91.2586Z" fill="#F9D206"/>
<path d="M314.516 217.481C315.405 216.922 315.621 215.66 315 214.671C314.379 213.682 314.677 212.371 315.661 211.749C316.646 211.127 316.999 209.896 316.439 209.006C315.879 208.117 314.616 207.9 313.627 208.52C312.639 209.14 311.326 208.841 310.703 207.857C310.079 206.872 308.847 206.518 307.958 207.077C307.068 207.636 306.852 208.898 307.473 209.886C308.095 210.875 307.796 212.186 306.812 212.808C305.828 213.431 305.474 214.662 306.034 215.551C306.594 216.441 307.857 216.658 308.846 216.038C309.835 215.417 311.147 215.717 311.77 216.701C312.394 217.685 313.626 218.04 314.516 217.481Z" fill="#F9D206"/>
<path d="M88.5398 6.98501C87.8384 8.39604 86.1232 8.97119 84.7106 8.26903C83.2981 7.56688 82.721 5.8523 83.4224 4.44127C84.1238 3.03024 85.839 2.45509 87.2516 3.15725C88.6641 3.8594 89.2412 5.57399 88.5398 6.98501Z" fill="#F9D206"/>
<path d="M132.268 298.133C131.025 297.919 129.822 298.819 129.597 300.127C129.372 301.436 128.054 302.316 126.674 302.078C125.294 301.841 123.995 302.613 123.793 303.792C123.59 304.97 124.557 306.131 125.937 306.368C127.317 306.605 128.265 307.875 128.04 309.183C127.815 310.492 128.649 311.742 129.892 311.955C131.135 312.169 132.338 311.269 132.563 309.961C132.788 308.652 134.106 307.772 135.486 308.01C136.866 308.247 138.165 307.475 138.367 306.297C138.57 305.118 137.603 303.957 136.223 303.72C134.843 303.483 133.895 302.213 134.12 300.905C134.345 299.596 133.511 298.346 132.268 298.133Z" fill="#F9D206"/>
<path d="M355.382 579.717C354.368 579.543 353.386 580.275 353.202 581.345C353.018 582.415 351.945 583.132 350.816 582.938C349.688 582.744 348.629 583.374 348.464 584.336C348.299 585.298 349.086 586.245 350.215 586.439C351.343 586.633 352.116 587.667 351.932 588.738C351.748 589.808 352.429 590.826 353.443 591C354.457 591.175 355.439 590.442 355.623 589.372C355.807 588.302 356.881 587.585 358.009 587.779C359.138 587.973 360.196 587.343 360.361 586.381C360.527 585.419 359.739 584.472 358.611 584.278C357.482 584.084 356.71 583.05 356.894 581.98C357.078 580.909 356.397 579.891 355.382 579.717Z" fill="#F9D206"/>
<path d="M61.0114 562.027C61.3169 561.098 60.6768 560.06 59.5835 559.716C58.4902 559.372 57.8787 558.25 58.2211 557.216C58.5634 556.182 58.0365 555.087 57.0545 554.78C56.0724 554.473 54.9925 555.064 54.6501 556.098C54.3077 557.132 53.1387 557.694 52.0453 557.35C50.952 557.006 49.8108 557.488 49.5053 558.417C49.1999 559.346 49.8399 560.384 50.9332 560.728C52.0266 561.072 52.638 562.194 52.2957 563.228C51.9533 564.262 52.4802 565.357 53.4622 565.664C54.4443 565.971 55.5242 565.38 55.8666 564.346C56.209 563.312 57.3781 562.75 58.4714 563.094C59.5647 563.438 60.7059 562.956 61.0114 562.027Z" fill="#F9D206"/>
<path d="M412.326 357.332C411.545 356.68 410.299 356.814 409.552 357.627C408.806 358.44 407.49 358.513 406.622 357.792C405.753 357.072 404.496 357.074 403.825 357.807C403.153 358.539 403.316 359.727 404.184 360.451C405.052 361.176 405.152 362.429 404.41 363.243C403.668 364.057 403.693 365.252 404.475 365.904C405.256 366.556 406.502 366.422 407.249 365.609C407.995 364.796 409.311 364.723 410.18 365.443C411.048 366.164 412.305 366.161 412.976 365.429C413.648 364.697 413.485 363.509 412.617 362.784C411.749 362.059 411.649 360.807 412.391 359.993C413.133 359.179 413.108 357.984 412.326 357.332Z" fill="#F9D206"/>
<path d="M280.509 614.319C282.035 614.582 283.072 615.969 282.823 617.416C282.574 618.863 281.134 619.825 279.608 619.562C278.082 619.3 277.046 617.913 277.295 616.466C277.543 615.018 278.983 614.057 280.509 614.319Z" fill="#F9D206"/>
<path d="M168.815 603.897C169.375 600.64 167.045 597.521 163.61 596.931C160.176 596.34 156.938 598.502 156.379 601.759C155.819 605.016 158.149 608.135 161.583 608.726C165.017 609.316 168.255 607.154 168.815 603.897Z" fill="#F9D206"/>
<path d="M453.642 825.362C453.97 824.144 453.185 822.863 451.903 822.519C450.62 822.174 449.866 820.781 450.229 819.429C450.592 818.076 449.944 816.712 448.789 816.401C447.634 816.091 446.389 816.947 446.025 818.299C445.662 819.651 444.311 820.478 443.028 820.134C441.746 819.789 440.425 820.504 440.098 821.722C439.77 822.94 440.555 824.221 441.837 824.566C443.12 824.911 443.874 826.304 443.511 827.656C443.148 829.008 443.796 830.373 444.951 830.683C446.106 830.993 447.351 830.138 447.714 828.786C448.078 827.434 449.429 826.606 450.712 826.951C451.994 827.295 453.315 826.58 453.642 825.362Z" fill="#F9D206"/>
<path d="M197.441 730.081C198.338 730.471 199.43 729.929 199.874 728.872C200.317 727.815 201.491 727.31 202.489 727.746C203.487 728.182 204.625 727.758 205.022 726.809C205.418 725.859 204.93 724.729 203.931 724.293C202.933 723.857 202.481 722.641 202.925 721.584C203.368 720.527 202.994 719.346 202.097 718.957C201.2 718.567 200.107 719.108 199.664 720.165C199.221 721.222 198.047 721.728 197.049 721.291C196.05 720.855 194.912 721.279 194.516 722.228C194.12 723.178 194.608 724.308 195.606 724.744C196.604 725.18 197.056 726.396 196.613 727.453C196.169 728.51 196.544 729.691 197.441 730.081Z" fill="#F9D206"/>
<path d="M125.136 943.823C124.734 945.319 123.257 946.223 121.839 945.841C120.421 945.46 119.596 943.938 119.998 942.442C120.4 940.947 121.877 940.043 123.295 940.424C124.713 940.805 125.538 942.328 125.136 943.823Z" fill="#F9D206"/>
<path d="M145.811 833.565C149.003 834.423 152.323 832.39 153.227 829.025C154.132 825.66 152.278 822.237 149.086 821.379C145.894 820.521 142.574 822.554 141.67 825.919C140.765 829.284 142.62 832.708 145.811 833.565Z" fill="#F9D206"/>
<path d="M741.654 51.4893C741.654 50.2061 740.483 49.154 739.057 49.154C737.63 49.154 736.459 47.984 736.459 46.5593C736.459 45.1345 735.406 43.9645 734.121 43.9645C732.837 43.9645 731.783 45.1345 731.783 46.5593C731.783 47.984 730.612 49.154 729.186 49.154C727.76 49.154 726.588 50.2061 726.588 51.4893C726.588 52.7726 727.76 53.8246 729.186 53.8246C730.612 53.8246 731.783 54.9946 731.783 56.4194C731.783 57.8442 732.837 59.0142 734.121 59.0142C735.406 59.0142 736.459 57.8442 736.459 56.4194C736.459 54.9946 737.63 53.8246 739.057 53.8246C740.483 53.8246 741.654 52.7726 741.654 51.4893Z" fill="#F9D206"/>
<path d="M484.147 323.804C484.147 322.757 483.193 321.898 482.027 321.898C480.86 321.898 479.906 320.945 479.906 319.78C479.906 318.615 479.046 317.662 477.998 317.662C476.949 317.662 476.09 318.615 476.09 319.78C476.09 320.945 475.136 321.898 473.969 321.898C472.803 321.898 471.849 322.757 471.849 323.804C471.849 324.852 472.803 325.71 473.969 325.71C475.136 325.71 476.09 326.663 476.09 327.828C476.09 328.994 476.949 329.947 477.998 329.947C479.046 329.947 479.906 328.994 479.906 327.828C479.906 326.663 480.86 325.71 482.027 325.71C483.193 325.71 484.147 324.852 484.147 323.804Z" fill="#F9D206"/>
<path d="M449.311 25.5134C450.35 25.6596 451.332 24.8388 451.498 23.6829C451.663 22.527 452.74 21.7203 453.897 21.8854C455.054 22.0505 456.117 21.3334 456.263 20.2955C456.409 19.2576 455.588 18.2763 454.431 18.1112C453.273 17.9461 452.466 16.8704 452.631 15.7146C452.796 14.5587 452.079 13.4972 451.04 13.351C450 13.2047 449.018 14.0256 448.853 15.1815C448.687 16.3373 447.611 17.1441 446.454 16.9789C445.296 16.8138 444.234 17.5309 444.087 18.5688C443.941 19.6067 444.763 20.588 445.92 20.7532C447.077 20.9183 447.885 21.9939 447.719 23.1498C447.554 24.3056 448.272 25.3671 449.311 25.5134Z" fill="#F9D206"/>
<path d="M729.942 342.581C730.489 341.684 730.121 340.458 729.125 339.849C728.128 339.241 727.812 337.934 728.416 336.938C729.021 335.943 728.789 334.683 727.892 334.136C726.994 333.589 725.767 333.957 725.157 334.952C724.548 335.948 723.24 336.264 722.243 335.66C721.247 335.056 719.986 335.287 719.438 336.184C718.89 337.08 719.258 338.307 720.255 338.915C721.251 339.524 721.568 340.831 720.963 341.826C720.359 342.821 720.59 344.081 721.488 344.628C722.385 345.176 723.613 344.808 724.222 343.812C724.831 342.817 726.14 342.501 727.136 343.105C728.133 343.708 729.394 343.477 729.942 342.581Z" fill="#F9D206"/>
<path d="M433.891 254.675C433.891 256.25 432.611 257.529 431.033 257.529C429.456 257.529 428.176 256.25 428.176 254.675C428.176 253.099 429.456 251.82 431.033 251.82C432.611 251.82 433.891 253.099 433.891 254.675Z" fill="#F9D206"/>
<path d="M424.601 140.853C428.151 140.853 431.029 137.979 431.029 134.432C431.029 130.886 428.151 128.012 424.601 128.012C421.051 128.012 418.173 130.886 418.173 134.432C418.173 137.979 421.051 140.853 424.601 140.853Z" fill="#F9D206"/>
<path d="M636.974 789.47C636.974 788.423 636.02 787.564 634.854 787.564C633.687 787.564 632.733 786.611 632.733 785.446C632.733 784.28 631.874 783.327 630.825 783.327C629.777 783.327 628.917 784.28 628.917 785.446C628.917 786.611 627.963 787.564 626.796 787.564C625.63 787.564 624.676 788.423 624.676 789.47C624.676 790.517 625.63 791.376 626.796 791.376C627.963 791.376 628.917 792.329 628.917 793.494C628.917 794.659 629.777 795.612 630.825 795.612C631.874 795.612 632.733 794.659 632.733 793.494C632.733 792.329 633.687 791.376 634.854 791.376C636.02 791.376 636.974 790.517 636.974 789.47Z" fill="#F9D206"/>
<path d="M602.138 491.179C603.177 491.325 604.16 490.505 604.325 489.349C604.49 488.193 605.567 487.386 606.724 487.551C607.881 487.716 608.944 486.999 609.09 485.961C609.237 484.923 608.415 483.942 607.258 483.777C606.101 483.612 605.293 482.536 605.458 481.38C605.624 480.224 604.906 479.163 603.867 479.017C602.828 478.87 601.845 479.691 601.68 480.847C601.515 482.003 600.438 482.81 599.281 482.645C598.124 482.48 597.061 483.197 596.915 484.235C596.768 485.273 597.59 486.254 598.747 486.419C599.904 486.584 600.712 487.66 600.547 488.816C600.381 489.971 601.099 491.033 602.138 491.179Z" fill="#F9D206"/>
<path d="M586.718 720.34C586.718 721.916 585.438 723.195 583.861 723.195C582.283 723.195 581.003 721.916 581.003 720.34C581.003 718.765 582.283 717.486 583.861 717.486C585.438 717.486 586.718 718.765 586.718 720.34Z" fill="#F9D206"/>
<path d="M577.428 606.519C580.978 606.519 583.856 603.644 583.856 600.098C583.856 596.552 580.978 593.677 577.428 593.677C573.878 593.677 571 596.552 571 600.098C571 603.644 573.878 606.519 577.428 606.519Z" fill="#F9D206"/>
</g>
<defs>
<linearGradient id="paint0_linear_19_531" x1="9.65016" y1="18.5649" x2="859.493" y2="831.243" gradientUnits="userSpaceOnUse">
<stop offset="0.365" stop-color="#651FAD"/>
<stop offset="1" stop-color="#A567E4"/>
</linearGradient>
</defs>
</svg>
